<svg xmlns="http://www.w3.org/2000/svg" fill="none" width="175" height="157"><defs><linearGradient x1=".408" y1=".698" x2=".377" y2=".961" id="a"><stop offset="0%" stop-color="#945DEB"/><stop offset="86.235%" stop-color="#C54CC6"/><stop offset="100%" stop-color="#EEE5FD"/></linearGradient><linearGradient x1="0" y1=".497" x2="1.001" y2=".497" id="b"><stop offset="0%" stop-color="#97B5E1"/><stop offset="33.75%" stop-color="#97B5E1"/><stop offset="59.32%" stop-color="#E8F1FF"/></linearGradient><linearGradient x1=".996" y1=".577" x2=".004" y2=".422" id="c"><stop offset="0%" stop-color="#FFF"/><stop offset="100%" stop-color="#C9D9F4"/></linearGradient><linearGradient x1=".583" y1=".313" x2=".437" y2=".58" id="d"><stop offset="0%" stop-color="#0CFF50" stop-opacity=".6"/><stop offset="100%" stop-color="#FFF" stop-opacity="0"/></linearGradient><linearGradient x1="-8.457" y1=".498" x2="-7.456" y2=".498" id="e"><stop offset="0%" stop-color="#92A6F1"/><stop offset="100%" stop-color="#FFF"/></linearGradient><linearGradient x1="3.687" y1="6.158" x2="3.079" y2="5.076" id="f"><stop offset="0%" stop-color="#05105D"/><stop offset="23.4%" stop-color="#0C3F8F"/><stop offset="47.9%" stop-color="#1369BC"/><stop offset="69.7%" stop-color="#1788DD"/><stop offset="87.8%" stop-color="#1A9BF1"/><stop offset="100%" stop-color="#1CA2F9"/></linearGradient><linearGradient x1=".203" y1="1.042" x2=".725" y2=".072" id="h"><stop offset="0%" stop-color="#884CE6"/><stop offset="45.313%" stop-color="#BC94FB"/><stop offset="100%" stop-color="#F58DED"/></linearGradient><linearGradient x1=".203" y1="1.042" x2=".725" y2=".072" id="j"><stop offset="0%" stop-color="#884CE6"/><stop offset="45.313%" stop-color="#BC94FB"/><stop offset="100%" stop-color="#F58DED"/></linearGradient><linearGradient x1=".203" y1="1.042" x2=".725" y2=".072" id="l"><stop offset="0%" stop-color="#884CE6"/><stop offset="45.313%" stop-color="#BC94FB"/><stop offset="100%" stop-color="#F58DED"/></linearGradient><linearGradient x1=".203" y1="1.042" x2=".725" y2=".072" id="m"><stop offset="0%" stop-color="#884CE6"/><stop offset="45.313%" stop-color="#BC94FB"/><stop offset="100%" stop-color="#F58DED"/></linearGradient><linearGradient x1=".203" y1="1.042" x2=".725" y2=".072" id="n"><stop offset="0%" stop-color="#884CE6"/><stop offset="45.313%" stop-color="#BC94FB"/><stop offset="100%" stop-color="#F58DED"/></linearGradient><linearGradient x1=".203" y1="1.042" x2=".725" y2=".072" id="p"><stop offset="0%" stop-color="#884CE6"/><stop offset="45.313%" stop-color="#BC94FB"/><stop offset="100%" stop-color="#F58DED"/></linearGradient><linearGradient x1=".203" y1="1.042" x2=".725" y2=".072" id="r"><stop offset="0%" stop-color="#884CE6"/><stop offset="45.313%" stop-color="#BC94FB"/><stop offset="100%" stop-color="#F58DED"/></linearGradient><linearGradient x1=".203" y1="1.042" x2=".725" y2=".072" id="t"><stop offset="0%" stop-color="#884CE6"/><stop offset="45.313%" stop-color="#BC94FB"/><stop offset="100%" stop-color="#F58DED"/></linearGradient><linearGradient x1=".203" y1="1.042" x2=".725" y2=".072" id="v"><stop offset="0%" stop-color="#884CE6"/><stop offset="45.313%" stop-color="#BC94FB"/><stop offset="100%" stop-color="#F58DED"/></linearGradient><linearGradient x1="-.173" y1=".859" x2=".665" y2=".189" id="w"><stop offset="0%" stop-color="#97B5E1"/><stop offset="100%" stop-color="#ECF1FA"/></linearGradient><linearGradient x1="1.078" y1=".788" x2="-.192" y2=".041" id="x"><stop offset="0%" stop-color="#FFF"/><stop offset="100%" stop-color="#C9D9F4"/></linearGradient><linearGradient x1="1.18" y1=".863" x2=".331" y2=".209" id="y"><stop offset="0%" stop-color="#97B5E1"/><stop offset="100%" stop-color="#ECF1FA"/></linearGradient><linearGradient x1="-.074" y1=".8" x2="1.208" y2=".051" id="z"><stop offset="0%" stop-color="#FFF"/><stop offset="100%" stop-color="#C9D9F4"/></linearGradient><filter id="g" filterUnits="objectBoundingBox" color-interpolation-filters="sRGB" x="0" y="0" width="2.4" height="1.8"><feFlood flood-opacity="0" result="BackgroundImageFix"/><feBlend in="SourceGraphic" in2="BackgroundImageFix" result="shape"/><feColorMatrix in="SourceAlpha" result="hardAlpha" values="0 0 0 0 0 0 0 0 0 0 0 0 0 0 0 0 0 0 127 0"/><feOffset dy="1" dx="1"/><feGaussianBlur stdDeviation=".5"/><feComposite in2="hardAlpha" operator="arithmetic" k2="-1" k3="1"/><feColorMatrix values="0 0 0 0 1 0 0 0 0 1 0 0 0 0 1 0 0 0 0.5799999833106995 0"/><feBlend in2="shape" result="effect1_innerShadow"/><feGaussianBlur in="BackgroundImage" stdDeviation="3"/><feComposite in2="SourceAlpha" operator="in" result="effect2_foregroundBlur"/><feBlend in="SourceGraphic" in2="effect2_foregroundBlur" result="shape"/></filter><filter id="i" filterUnits="objectBoundingBox" color-interpolation-filters="sRGB" x="0" y="0" width="4.6" height="3.1"><feFlood flood-opacity="0" result="BackgroundImageFix"/><feBlend in="SourceGraphic" in2="BackgroundImageFix" result="shape"/><feColorMatrix in="SourceAlpha" result="hardAlpha" values="0 0 0 0 0 0 0 0 0 0 0 0 0 0 0 0 0 0 127 0"/><feOffset dy="1" dx="1"/><feGaussianBlur stdDeviation=".5"/><feComposite in2="hardAlpha" operator="arithmetic" k2="-1" k3="1"/><feColorMatrix values="0 0 0 0 1 0 0 0 0 1 0 0 0 0 1 0 0 0 0.5799999833106995 0"/><feBlend in2="shape" result="effect1_innerShadow"/><feGaussianBlur in="BackgroundImage" stdDeviation="3"/><feComposite in2="SourceAlpha" operator="in" result="effect2_foregroundBlur"/><feBlend in="SourceGraphic" in2="effect2_foregroundBlur" result="shape"/></filter><filter id="k" filterUnits="objectBoundingBox" color-interpolation-filters="sRGB" x="0" y="0" width="4.6" height="10.139"><feFlood flood-opacity="0" result="BackgroundImageFix"/><feBlend in="SourceGraphic" in2="BackgroundImageFix" result="shape"/><feColorMatrix in="SourceAlpha" result="hardAlpha" values="0 0 0 0 0 0 0 0 0 0 0 0 0 0 0 0 0 0 127 0"/><feOffset dy="1" dx="1"/><feGaussianBlur stdDeviation=".5"/><feComposite in2="hardAlpha" operator="arithmetic" k2="-1" k3="1"/><feColorMatrix values="0 0 0 0 1 0 0 0 0 1 0 0 0 0 1 0 0 0 0.5799999833106995 0"/><feBlend in2="shape" result="effect1_innerShadow"/><feGaussianBlur in="BackgroundImage" stdDeviation="3"/><feComposite in2="SourceAlpha" operator="in" result="effect2_foregroundBlur"/><feBlend in="SourceGraphic" in2="effect2_foregroundBlur" result="shape"/></filter><filter id="o" filterUnits="objectBoundingBox" color-interpolation-filters="sRGB" x="0" y="0" width="2.5" height="1.8"><feFlood flood-opacity="0" result="BackgroundImageFix"/><feBlend in="SourceGraphic" in2="BackgroundImageFix" result="shape"/><feColorMatrix in="SourceAlpha" result="hardAlpha" values="0 0 0 0 0 0 0 0 0 0 0 0 0 0 0 0 0 0 127 0"/><feOffset dy="1" dx="1"/><feGaussianBlur stdDeviation=".5"/><feComposite in2="hardAlpha" operator="arithmetic" k2="-1" k3="1"/><feColorMatrix values="0 0 0 0 1 0 0 0 0 1 0 0 0 0 1 0 0 0 0.5799999833106995 0"/><feBlend in2="shape" result="effect1_innerShadow"/><feGaussianBlur in="BackgroundImage" stdDeviation="3"/><feComposite in2="SourceAlpha" operator="in" result="effect2_foregroundBlur"/><feBlend in="SourceGraphic" in2="effect2_foregroundBlur" result="shape"/></filter><filter id="q" filterUnits="objectBoundingBox" color-interpolation-filters="sRGB" x="0" y="0" width="4.6" height="3.1"><feFlood flood-opacity="0" result="BackgroundImageFix"/><feBlend in="SourceGraphic" in2="BackgroundImageFix" result="shape"/><feColorMatrix in="SourceAlpha" result="hardAlpha" values="0 0 0 0 0 0 0 0 0 0 0 0 0 0 0 0 0 0 127 0"/><feOffset dy="1" dx="1"/><feGaussianBlur stdDeviation=".5"/><feComposite in2="hardAlpha" operator="arithmetic" k2="-1" k3="1"/><feColorMatrix values="0 0 0 0 1 0 0 0 0 1 0 0 0 0 1 0 0 0 0.5799999833106995 0"/><feBlend in2="shape" result="effect1_innerShadow"/><feGaussianBlur in="BackgroundImage" stdDeviation="3"/><feComposite in2="SourceAlpha" operator="in" result="effect2_foregroundBlur"/><feBlend in="SourceGraphic" in2="effect2_foregroundBlur" result="shape"/></filter><filter id="s" filterUnits="objectBoundingBox" color-interpolation-filters="sRGB" x="0" y="0" width="4.5" height="8.477"><feFlood flood-opacity="0" result="BackgroundImageFix"/><feBlend in="SourceGraphic" in2="BackgroundImageFix" result="shape"/><feColorMatrix in="SourceAlpha" result="hardAlpha" values="0 0 0 0 0 0 0 0 0 0 0 0 0 0 0 0 0 0 127 0"/><feOffset dy="1" dx="1"/><feGaussianBlur stdDeviation=".5"/><feComposite in2="hardAlpha" operator="arithmetic" k2="-1" k3="1"/><feColorMatrix values="0 0 0 0 1 0 0 0 0 1 0 0 0 0 1 0 0 0 0.5799999833106995 0"/><feBlend in2="shape" result="effect1_innerShadow"/><feGaussianBlur in="BackgroundImage" stdDeviation="3"/><feComposite in2="SourceAlpha" operator="in" result="effect2_foregroundBlur"/><feBlend in="SourceGraphic" in2="effect2_foregroundBlur" result="shape"/></filter><filter id="u" filterUnits="objectBoundingBox" color-interpolation-filters="sRGB" x="0" y="0" width="7.4" height="9.393"><feFlood flood-opacity="0" result="BackgroundImageFix"/><feBlend in="SourceGraphic" in2="BackgroundImageFix" result="shape"/><feColorMatrix in="SourceAlpha" result="hardAlpha" values="0 0 0 0 0 0 0 0 0 0 0 0 0 0 0 0 0 0 127 0"/><feOffset dy="1" dx="1"/><feGaussianBlur stdDeviation=".5"/><feComposite in2="hardAlpha" operator="arithmetic" k2="-1" k3="1"/><feColorMatrix values="0 0 0 0 1 0 0 0 0 1 0 0 0 0 1 0 0 0 0.5799999833106995 0"/><feBlend in2="shape" result="effect1_innerShadow"/><feGaussianBlur in="BackgroundImage" stdDeviation="3"/><feComposite in2="SourceAlpha" operator="in" result="effect2_foregroundBlur"/><feBlend in="SourceGraphic" in2="effect2_foregroundBlur" result="shape"/></filter><filter id="A" filterUnits="objectBoundingBox" color-interpolation-filters="sRGB" x="-52" y="-52" width="201" height="168"><feFlood flood-opacity="0" result="BackgroundImageFix"/><feBlend in="SourceGraphic" in2="BackgroundImageFix" result="shape"/><feGaussianBlur stdDeviation="13" result="effect1_foregroundBlur"/></filter></defs><path d="M116.4 66.1c5.9 3.4 5.9 8.9.1 12.3L84.8 96.8c-5.8 3.4-15.3 3.4-21.2 0L31.7 78.4c-5.9-3.4-5.9-8.9-.1-12.3l31.7-18.4c5.8-3.4 15.3-3.4 21.2 0l31.9 18.4Z" fill="#00357C" fill-opacity=".4" style="opacity:.4000000059604645"/><path d="M120.8 62.9H27.2v3.3c0 2.2 1.5 4.4 4.4 6.1l31.9 18.4c5.9 3.4 15.4 3.4 21.2 0l31.7-18.4c2.9-1.7 4.4-3.9 4.4-6.1v-3.3Z" fill="url(#a)"/><path d="M116.4 56.7c5.9 3.4 5.9 8.9.1 12.3L84.8 87.4c-5.8 3.4-15.3 3.4-21.2 0L31.6 69c-5.9-3.4-5.9-8.9-.1-12.3l31.7-18.4c5.8-3.4 15.3-3.4 21.2 0l32 18.4Z" fill="#F3F8FE"/><path d="M113.5 53.5h-79v8.9c0 1.9 1.3 3.8 3.7 5.2l26.9 15.6c5 2.9 13 2.9 17.9 0l26.8-15.6c2.5-1.4 3.7-3.3 3.7-5.2v-8.9Z" fill="url(#b)"/><path d="M109.8 48.3c5 2.9 5 7.5.1 10.4L83.1 74.3c-4.9 2.9-12.9 2.9-17.9 0L38.3 58.7c-5-2.9-5-7.5-.1-10.4L65 32.7c4.9-2.9 12.9-2.9 17.9 0l26.9 15.6Z" fill="#BCD0F1"/><path d="M73.9 31.1c3.3 0 6.4.7 8.7 2.1l26.9 15.6c2.2 1.3 3.5 3 3.5 4.8 0 1.8-1.2 3.4-3.4 4.7L82.8 73.9c-2.3 1.3-5.4 2.1-8.7 2.1-3.3 0-6.4-.7-8.7-2.1L38.5 58.3c-2.2-1.3-3.5-3-3.5-4.8 0-1.8 1.2-3.4 3.4-4.7l26.8-15.6c2.3-1.3 5.4-2.1 8.7-2.1Zm0-.5c-3.2 0-6.5.7-8.9 2.1L38.2 48.3c-4.9 2.9-4.9 7.5.1 10.4l26.9 15.6c2.5 1.4 5.7 2.1 9 2.1s6.5-.7 8.9-2.1l26.8-15.6c4.9-2.9 4.9-7.5-.1-10.4L82.9 32.7c-2.5-1.4-5.8-2.1-9-2.1Z" fill="url(#c)"/><path d="M58.2 73.2c.5.3.8.9.8 1.5v1.5c0 .5-.4.8-.9.5L42 67.4c-.5-.3-.8-.9-.8-1.5v-1.5c0-.5.4-.8.9-.5l16.1 9.3Z" fill="#0CFFFC"/><path d="m59 76.2-16.1-9.3c-.5-.3-.8-.9-.8-1.5v-1.5c-.4-.2-.8 0-.8.5v1.5c0 .5.4 1.2.8 1.5l16.1 9.3c.5.3.9.1.8-.5Z" fill="#1964BA"/><path d="M81.164 36.692h-.001q-2.954-1.742-7.213-1.742-4.26 0-7.213 1.742l-21.5 12.5q-1.497.86-2.289 1.98-.773 1.091-.773 2.278t.773 2.278q.792 1.12 2.29 1.98l21.6 12.5q3.029 1.742 7.262 1.742t7.263-1.742l21.5-12.5q1.463-.863 2.232-1.98.752-1.094.743-2.279-.01-1.188-.784-2.278-.795-1.12-2.291-1.98l-21.6-12.499ZM73.95 35.2q4.19 0 7.087 1.708l21.6 12.5q1.45.833 2.213 1.908.728 1.026.738 2.135.009 1.106-.699 2.134-.738 1.073-2.152 1.907l-21.5 12.5Q78.267 71.7 74.1 71.7t-7.138-1.708l-21.6-12.5q-1.45-.834-2.21-1.908-.727-1.027-.727-2.134t.727-2.134q.76-1.074 2.21-1.908l21.5-12.5Q69.76 35.2 73.95 35.2Z" fill-rule="evenodd" fill="#9A62F0" fill-opacity=".5"/><path d="m100.663 49.492-20-11.6h-.001Q77.858 36.3 73.95 36.3t-6.713 1.592l-19.899 11.6q-1.386.786-2.121 1.83-.717 1.016-.717 2.128 0 1.111.717 2.128.735 1.044 2.12 1.83l20.001 11.6Q70.142 70.6 74.05 70.6t6.713-1.592l19.899-11.6q1.386-.786 2.121-1.83.717-1.017.717-2.128 0-1.112-.717-2.128-.735-1.044-2.12-1.83ZM80.537 38.108h.001l20 11.6q1.338.76 2.041 1.758.671.952.671 1.984t-.67 1.984q-.704.998-2.042 1.757L80.637 68.792q-2.745 1.558-6.587 1.558-3.842 0-6.588-1.559l-20-11.6q-1.338-.759-2.041-1.757-.671-.952-.671-1.984t.671-1.984q.703-.998 2.04-1.757l19.902-11.601q2.745-1.558 6.587-1.558 3.841 0 6.587 1.558Z" fill-rule="evenodd" fill="#9A62F0" fill-opacity=".5"/><g><path d="M59.1 74.7c0-.5-.4-1.2-.8-1.5l-16.1-9.3c-.2-.1-.4-.1-.5-.1l-3.4.9c-.2.1-.3.3-.3.6v2.2c0 .6.4 1.4 1 1.7L56.7 80c.4.2.8 0 .9-.2.8-1 1.3-3.1 1.3-3.1s.2-.1.2-.5v-1.5Z" fill="url(#d)"/></g><g style="opacity:.20000000298023224"><path d="M95.1 48.3s0-.1.1-.1c.1-.1.1-.2.1-.3 0-.1 0-.1.1-.2v-.8c-.1-.6-.5-1.1-1-1.4l-8.6-5c-1.1-.6-2.5-.6-3.6 0L54.7 56.2c-.5.3-.9.8-1 1.4v.8c0 .1 0 .1.1.2 0 .1.1.2.1.3 0 0 0 .1.1.1.1.1.2.3.3.4l.1.1c.1.1.3.2.4.3l8.6 5c.1.1.3.1.4.2.7.3 1.5.4 2.3.1.3-.1.6-.2.9-.4L94.3 49c.1-.1.3-.2.4-.3 0 0 .1 0 .1-.1l.3-.3Z" fill="#00357C" fill-opacity=".4"/></g><g><path d="M81.6 30.9 53.6 47c-1 .6-1.4 1.9-.8 2.9.2.3.5.6.8.8l8.8 5.1c1.1.7 2.5.7 3.7 0l28-16.1c1-.6 1.4-1.9.8-2.9-.2-.3-.5-.6-.8-.8l-8.8-5.1c-1.2-.7-2.6-.7-3.7 0Z" fill="#E9EDFC"/><path d="M79.4 32.6 57.8 45c-.8.5-1 1.5-.6 2.2.1.2.3.5.6.6l1 .6c.9.5 2 .5 2.8 0L83.2 36c.8-.5 1-1.5.6-2.2-.1-.2-.4-.5-.6-.6l-1-.6c-.8-.5-1.9-.5-2.8 0Z" fill="#D3DBF9"/><path d="m94.1 38.8-28 16.1c-1.1.7-2.5.7-3.7 0l-8.8-5.1c-.5-.3-.9-.8-1-1.4-.2.9.2 1.8 1 2.3l8.8 5.1c1.1.7 2.5.7 3.7 0l28-16.1c.8-.5 1.2-1.4 1-2.3-.2.6-.5 1.1-1 1.4Z" fill="url(#e)"/><path d="M56.2 20 82.9 4.6c.8-.5 1.8-.2 2.3.6.1.3.2.5.2.8v25.3c0 .8-.4 1.6-1.2 2L57.5 48.7c-.8.5-1.8.2-2.3-.6-.1-.3-.2-.5-.2-.8V22c0-.9.4-1.6 1.2-2Z" fill="#00357C" fill-opacity=".4"/><path d="M56.2 20 82.9 4.6c.7-.4 1.6-.2 2.1.4-.4-.1-.9-.1-1.3.1L56.9 20.5c-.7.4-1.2 1.2-1.2 2v25.3c0 .4.1.8.4 1.1-.7-.2-1.2-.9-1.2-1.6V22c.1-.9.5-1.6 1.3-2Z" fill="url(#f)"/><path d="M63.2 32.4c.2-.1.4 0 .4.2v5.2c0 .3-.2.6-.4.8l-3.7 2.2c-.2.1-.4 0-.4-.3v-5.2c0-.3.2-.6.4-.8l3.7-2.1Z" fill="#FFF" style="opacity:.8999999761581421"/><g filter="url(#g)"><path d="M63.6 38.7v.4l-2.4 1.4v-.4l2.4-1.4Z" fill="url(#h)" fill-opacity=".9"/></g><g filter="url(#i)"><path d="M63.6 39.4v.4L59 42.5v-.4l4.6-2.7Z" fill="url(#j)" fill-opacity=".9"/></g><g filter="url(#k)"><path d="M69.7 28.6c.2-.1.4 0 .4.2V34c0 .3-.2.6-.4.8L66 37c-.2.1-.4 0-.4-.3v-5.2c0-.3.2-.6.4-.8l3.7-2.1Z" fill="url(#l)" fill-opacity=".9"/><path d="M70.2 35.6v.4l-4.6 2.7v-.4l4.6-2.7Z" fill="url(#m)" fill-opacity=".9" style="opacity:.8999999761581421"/><path d="M70.2 34.9v.4l-2.4 1.4v-.4l2.4-1.4Z" fill="url(#n)" fill-opacity=".9" style="opacity:.8999999761581421"/></g><g><g filter="url(#o)"><path d="M76.8 31.1v.4l-2.5 1.4v-.4l2.5-1.4Z" fill="url(#p)" fill-opacity=".9"/></g><path d="M76.3 24.8c.2-.1.4 0 .4.2v5.2c0 .3-.2.6-.4.8l-3.7 2.2c-.2.1-.4 0-.4-.3v-5.2c0-.3.2-.6.4-.8l3.7-2.1Z" fill="#FFF" style="opacity:.8999999761581421"/><g filter="url(#q)"><path d="M76.8 31.8v.4l-4.6 2.7v-.4l4.6-2.7Z" fill="url(#r)" fill-opacity=".9"/></g></g><g><g filter="url(#s)"><path d="M82.9 21c.2-.1.4 0 .4.2v5.2c0 .3-.2.6-.4.8l-3.7 2.2c-.2.1-.4 0-.4-.3v-5.2c0-.3.2-.6.4-.8l3.7-2.1Z" fill="url(#t)" fill-opacity=".9"/></g><g style="opacity:.8999999761581421"><path d="M83.4 27.3v.4l-2.5 1.4v-.4l2.5-1.4ZM83.4 28v.4l-4.6 2.7v-.4l4.6-2.7Z" fill="#FFF"/></g></g><g><g style="opacity:.800000011920929"><path d="M83.1 11.5c.1-.1.2 0 .2.1v.5c0 .1-.1.3-.2.4l-14.9 8.6c-.1.1-.2 0-.2-.1v-.5c0-.1.1-.3.2-.4l14.9-8.6ZM73.7 21.5l.2.1v.6l-.2.3-5.6 3.2-.1-.1V25l.1-.3 5.6-3.2ZM73.7 19.7h.2v.7l-.2.2-5.6 3.3-.1-.1v-.7l.1-.2 5.6-3.2Z" fill="#FFF"/></g><path d="M61.9 23.1c.9-.5 1.6-.1 1.6.9 0 .8-.4 1.7-1 2.3 1-.4 1.9 0 2.3.8-.5 1.1-1.3 2.1-2.2 2.9 0 0-.1 0-.1.1l-.1.1-.1.1c-.1 0-.1.1-.2.1s-.1.1-.2.1-.1.1-.2.1-.1.1-.2.1c0 0-.1 0-.1.1h-.2c-.9.3-1.7.2-2.2-.3.4-1.3 1.2-2.7 2.3-3.5-.6.1-1-.3-1-1.1 0-1.1.7-2.3 1.6-2.8Z" fill="#FFF"/><g filter="url(#u)"><path d="M61.9 22c2-1.2 3.7-.2 3.7 2.1 0 2.1-1.3 4.5-3 5.9.9-.7 1.7-1.7 2.2-2.9-.4-.9-1.3-1.2-2.3-.8.6-.6 1-1.5 1-2.3 0-1-.7-1.4-1.6-.9-.9.5-1.6 1.7-1.6 2.7 0 .8.4 1.2 1 1.1-1.1.8-1.9 2.2-2.3 3.5.5.5 1.3.6 2.2.3-1.7.6-3-.3-3-2.4 0-2.3 1.6-5.1 3.7-6.3Z" fill="url(#v)" fill-opacity=".9"/></g></g></g><g><path d="m103 30.7-17.1-9.9v.6l16.8 9.7c1.9 1.1 2.9 2.5 2.9 4s-1 2.9-2.8 4L81.2 51.7C77.3 54 70.9 54 67 51.7L45.2 39.1c-1.9-1.1-2.9-2.5-2.9-4s1-2.9 2.9-4l9.5-5.5V25L45 30.6c-2 1.2-3.1 2.7-3.1 4.4 0 1.7 1.1 3.3 3.1 4.4L66.8 52c2 1.2 4.7 1.8 7.4 1.8s5.3-.6 7.4-1.8l21.6-12.6c2-1.2 3.1-2.7 3.1-4.4-.2-1.5-1.3-3.1-3.3-4.3Z" fill="#925BEB"/></g><g><path d="M32.3 19.9c0 .8.3 1.4.7 1.6l1.1.6s11-8.2 11-9.6c0 0 0-.5-.1-.8.2-.1.5-.2.5-.2-.2-.1-.8-.5-1.1-.6-.4-.1-1.1.1-1.3.2 0-.3-.1-.6-.2-.8l.5-.1-1-.6c-.4-.2-.9-.2-1.4.1-.3.2-.5.4-.7.6 0 0-.5-.3-.8-.5-.3-.2-.6-.2-.9-.2h-.5c-.3.1-.6.2-.9.4-1.2.7-2.3 2.1-2.9 3.8-.4 1-.7 2.3-.6 3-1.2 1.2-1.4 2-1.4 3.1Z" fill="url(#w)"/><path d="M33.4 20.6c0 1.4.9 2.1 2 1.5 0 0 .1 0 .1-.1l8.7-5.1s.1 0 .1-.1c1.1-.6 1.9-2.3 1.9-3.7 0-1.4-.9-2.1-2-1.5h-.1c-.1-1.5-1-2.1-2.2-1.4-.3.2-.6.5-.9.8-.6-.9-1.7-1.1-2.9-.4-1.9 1.1-3.5 4.1-3.4 6.7-.7.9-1.3 2.2-1.3 3.3Z" fill="#F3F8FE"/><path d="M44.3 16.8c1.1-.6 1.9-2.3 1.9-3.7 0-1.4-.9-2.1-2-1.5h-.1c-.1-1.5-1-2.1-2.2-1.4-.3.2-.6.5-.9.8-.6-.9-1.7-1.1-2.9-.4l-.1.1 4.6 7.1 1.5-.9c.1 0 .2 0 .2-.1Z" fill="url(#x)"/></g><g><path d="M114.5 23.8c0 .5-.2.8-.4.9l-.6.4s-6.5-4.8-6.5-5.7c0 0 0-.3.1-.5-.1 0-.3-.1-.3-.1.1-.1.5-.3.6-.4.2-.1.7 0 .8.1 0-.2 0-.3.1-.5l-.3-.1.6-.4c.2-.1.5-.1.9.1.2.1.3.2.4.4 0 0 .3-.2.5-.3.2-.1.4-.1.6-.1H111.3c.2 0 .4.1.5.2.7.4 1.4 1.3 1.7 2.2.2.6.4 1.3.3 1.8.6.9.7 1.3.7 2Z" fill="url(#y)"/><path d="M113.9 24.2c0 .8-.5 1.2-1.2.9h-.1l-5.1-3h-.1c-.6-.4-1.1-1.4-1.1-2.2 0-.8.5-1.2 1.2-.9 0-.9.6-1.3 1.3-.9.2.1.4.3.5.4.4-.5 1-.7 1.7-.2 1.1.7 2.1 2.5 2 4 .5.5.9 1.2.9 1.9Z" fill="#F3F8FE"/><path d="M107.4 22c-.6-.4-1.1-1.4-1.1-2.2 0-.8.5-1.2 1.2-.9 0-.9.6-1.3 1.3-.9.2.1.4.3.5.4.4-.5 1-.7 1.7-.2l.1.1-2.7 4.2-1-.5c.1 0 .1 0 0 0Z" fill="url(#z)"/></g><g style="opacity:.4099999964237213;mix-blend-mode:multiply" filter="url(#A)"><path d="M122.983 54 39 96.526 76.372 118V96.526l59.628-32L122.983 54Z" fill="#88F5DF" style="mix-blend-mode:multiply"/></g></svg>